<?xml version="1.0" standalone="no"?>
<!DOCTYPE svg PUBLIC "-//W3C//DTD SVG 1.1//EN" "http://www.w3.org/Graphics/SVG/1.1/DTD/svg11.dtd">
<svg xmlns="http://www.w3.org/2000/svg">
<metadata>Copyright (C) 2023 by original authors @ fontello.com</metadata>
<defs>
<font id="fontello" horiz-adv-x="1000" >
<font-face font-family="fontello" font-weight="400" font-stretch="normal" units-per-em="1000" ascent="850" descent="-150" />
<missing-glyph horiz-adv-x="1000" />
<glyph glyph-name="down-open" unicode="&#xe800;" d="M564 422l-234-224q-18-18-40-18t-40 18l-234 224q-16 16-16 41t16 41q38 38 78 0l196-188 196 188q40 38 78 0 16-16 16-41t-16-41z" horiz-adv-x="580" />

<glyph glyph-name="left-open" unicode="&#xe801;" d="M242 626q14 16 39 16t41-16q38-36 0-80l-186-196 186-194q38-44 0-80-16-16-40-16t-40 16l-226 236q-16 16-16 38 0 24 16 40 206 214 226 236z" horiz-adv-x="341" />

<glyph glyph-name="right-open" unicode="&#xe802;" d="M98 626l226-236q16-16 16-40 0-22-16-38l-226-236q-16-16-40-16t-40 16q-36 36 0 80l186 194-186 196q-36 44 0 80 16 16 41 16t39-16z" horiz-adv-x="340" />

<glyph glyph-name="up-open" unicode="&#xe803;" d="M564 280q16-16 16-41t-16-41q-38-38-78 0l-196 188-196-188q-40-38-78 0-16 16-16 41t16 41l234 224q16 16 40 16t40-16z" horiz-adv-x="580" />

<glyph glyph-name="down-open-mini" unicode="&#xe804;" d="M405 470q22 26 48 0 26-22 0-48l-196-192q-22-22-48 0l-196 192q-26 26 0 48 24 24 50 0l170-156z" horiz-adv-x="466" />

<glyph glyph-name="left-open-mini" unicode="&#xe805;" d="M252 180q26-26 0-48-26-26-48 0l-192 194q-24 24 0 50l192 194q22 26 48 0 26-22 0-48l-156-172z" horiz-adv-x="265" />

<glyph glyph-name="right-open-mini" unicode="&#xe806;" d="M13 180l158 170-158 172q-26 26 0 48 26 26 48 0l192-194q24-26 0-50l-192-194q-22-26-48 0-26 22 0 48z" horiz-adv-x="265" />

<glyph glyph-name="up-open-mini" unicode="&#xe807;" d="M62 230q-26-22-50 0-24 24 0 50l196 190q26 26 48 0l196-190q24-26 0-50-24-22-50 0l-170 158z" horiz-adv-x="464" />

<glyph glyph-name="down-open-big" unicode="&#xe808;" d="M63 570l370-356 372 356q22 26 48 0 26-22 0-48l-396-392q-22-22-48 0l-396 392q-26 26 0 48 24 24 50 0z" horiz-adv-x="866" />

<glyph glyph-name="left-open-big" unicode="&#xe809;" d="M452-20q26-26 0-48-26-26-48 0l-392 394q-24 24 0 50l392 394q22 26 48 0 26-22 0-48l-358-372z" horiz-adv-x="465" />

<glyph glyph-name="right-open-big" unicode="&#xe80a;" d="M13-20l358 370-358 372q-26 26 0 48 26 26 48 0l392-394q24-26 0-50l-392-394q-22-26-48 0-26 22 0 48z" horiz-adv-x="465" />

<glyph glyph-name="up-open-big" unicode="&#xe80b;" d="M804 130l-372 358-370-358q-26-22-50 0-24 24 0 50l396 390q26 26 48 0l396-390q24-26 0-50-26-22-48 0z" horiz-adv-x="864" />

<glyph glyph-name="down-small" unicode="&#xe80c;" d="M505 346q15-15 15-37t-15-37l-245-245-245 245q-15 15-15 37t15 37 37 15 37-15l120-119 0 395q0 21 15 36t36 15 37-15 16-36l0-395 120 119q15 15 36 15t36-15z" horiz-adv-x="520" />

<glyph glyph-name="left-small" unicode="&#xe80d;" d="M595 403q21 0 36-16t15-37-15-37-36-15l-395 0 119-119q15-15 15-37t-15-37-36-15q-23 0-38 15l-245 245 245 245q15 15 37 15t37-15 15-37-15-37l-119-118 395 0z" horiz-adv-x="646" />

<glyph glyph-name="right-small" unicode="&#xe80e;" d="M328 595q15 15 36 15t37-15l245-245-245-245q-15-15-36-15-22 0-37 15t-15 37 15 37l120 119-395 0q-22 0-37 15t-16 37 16 37 37 16l395 0-120 118q-15 15-15 37t15 37z" horiz-adv-x="646" />

<glyph glyph-name="up-small" unicode="&#xe80f;" d="M260 673l245-245q15-15 15-37t-15-37-36-15-36 15l-120 120 0-395q0-21-16-37t-37-15-36 15-15 37l0 395-120-120q-15-15-37-15t-37 15-15 37 15 37z" horiz-adv-x="520" />

<glyph glyph-name="location-outline" unicode="&#xe810;" d="M416 741q-128 0-221-90-91-88-91-216 0-126 91-215l221-219 223 219q90 88 90 215 0 129-90 216-93 90-223 90z m0 104q174 0 295-120t122-290-122-290l-295-290-293 290q-123 120-123 290t123 290 293 120z m0-286q-52 0-91-39t-39-92 39-92q38-37 91-37 55 0 93 37 39 39 39 92t-39 92-93 39z m0 52q75 0 129-53t54-129-54-129-129-54-128 54-54 129 54 129 128 53z" horiz-adv-x="833" />

<glyph glyph-name="location" unicode="&#xe811;" d="M711 725q122-120 122-290t-122-290l-295-290-293 290q-123 120-123 290t123 290 295 120 293-120z m-295-426q55 0 93 37 39 39 39 92t-39 92-93 39q-52 0-91-39t-39-92 39-92q38-37 91-37z" horiz-adv-x="833" />

<glyph glyph-name="calendar" unicode="&#xe812;" d="M71-79h161v161h-161v-161z m197 0h178v161h-178v-161z m-197 197h161v178h-161v-178z m197 0h178v178h-178v-178z m-197 214h161v161h-161v-161z m411-411h179v161h-179v-161z m-214 411h178v161h-178v-161z m428-411h161v161h-161v-161z m-214 197h179v178h-179v-178z m-196 482v161q0 7-6 12t-12 6h-36q-7 0-12-6t-6-12v-161q0-7 6-13t12-5h36q7 0 12 5t6 13z m410-482h161v178h-161v-178z m-214 214h179v161h-179v-161z m214 0h161v161h-161v-161z m18 268v161q0 7-5 12t-13 6h-35q-7 0-13-6t-5-12v-161q0-7 5-13t13-5h35q8 0 13 5t5 13z m215 36v-715q0-29-22-50t-50-21h-786q-29 0-50 21t-21 50v715q0 29 21 50t50 21h72v54q0 37 26 63t63 26h36q37 0 63-26t26-63v-54h214v54q0 37 27 63t63 26h35q37 0 64-26t26-63v-54h71q29 0 50-21t22-50z" horiz-adv-x="928.6" />

<glyph glyph-name="calendar-1" unicode="&#xe813;" d="M800 700q42 0 71-29t29-71l0-600q0-40-29-70t-71-30l-700 0q-40 0-70 30t-30 70l0 600q0 42 30 71t70 29l46 0 0-100 160 0 0 100 290 0 0-100 160 0 0 100 44 0z m0-700l0 400-700 0 0-400 700 0z m-540 800l0-170-70 0 0 170 70 0z m450 0l0-170-70 0 0 170 70 0z" horiz-adv-x="900" />

<glyph glyph-name="linkedin" unicode="&#xe814;" d="M159-15l-156 0 0 521 156 0 0-521z m394 505q87 0 133-56t45-154l0-295-156 0 0 279q0 109-76 109-61 0-80-62l0-326-156 0q2 469 0 521l123 0 10-103 3 0q54 87 154 87z m-553 146q0 79 81 79 80 0 80-79 0-77-80-77-81 0-81 77z" horiz-adv-x="731" />

<glyph glyph-name="plus" unicode="&#xe815;" d="M550 400q30 0 30-50t-30-50l-210 0 0-210q0-30-50-30t-50 30l0 210-210 0q-30 0-30 50t30 50l210 0 0 210q0 30 50 30t50-30l0-210 210 0z" horiz-adv-x="580" />

<glyph glyph-name="search" unicode="&#xe816;" d="M746 209l254-255-105-105-254 254q-106-72-232-72-169 0-289 120t-120 289 120 289 289 120 289-120 120-289q0-127-72-231z m-65 231q0 113-79 193t-193 80-193-80-80-193 80-192 193-80 193 80 79 192z" horiz-adv-x="1000" />

<glyph glyph-name="down-dir" unicode="&#xe817;" d="M571 457q0-14-10-25l-250-250q-11-11-25-11t-25 11l-250 250q-11 11-11 25t11 25 25 11h500q14 0 25-11t10-25z" horiz-adv-x="571.4" />

<glyph glyph-name="up-dir" unicode="&#xe818;" d="M571 171q0-14-10-25t-25-10h-500q-15 0-25 10t-11 25 11 26l250 250q10 10 25 10t25-10l250-250q10-11 10-26z" horiz-adv-x="571.4" />

<glyph glyph-name="left-dir" unicode="&#xe819;" d="M357 600v-500q0-14-10-25t-26-11-25 11l-250 250q-10 11-10 25t10 25l250 250q11 11 25 11t26-11 10-25z" horiz-adv-x="357.1" />

<glyph glyph-name="right-dir" unicode="&#xe81a;" d="M321 350q0-14-10-25l-250-250q-11-11-25-11t-25 11-11 25v500q0 15 11 25t25 11 25-11l250-250q10-10 10-25z" horiz-adv-x="357.1" />

<glyph glyph-name="light-arrow-right" unicode="&#xe81b;" d="M1178 316l-432-433c-9-9-22-14-34-14-13 0-25 5-34 14-9 9-15 21-15 34 0 13 6 25 15 34l350 351h-941c-13 0-25 5-34 14-9 9-14 21-14 34 0 13 5 25 14 34 9 9 21 14 34 14h941l-350 351c-9 9-15 21-15 34 0 12 6 25 15 34 9 9 21 14 34 14 12 0 25-5 34-14l432-433c5-4 8-10 11-16 2-5 3-12 3-18 0-6-1-13-3-18-3-6-6-11-11-16z" horiz-adv-x="1231" />

<glyph glyph-name="light-beds" unicode="&#xe81c;" d="M1161 663h-1027v133c0 12-5 24-13 32-8 8-20 13-32 13-12 0-23-5-31-13-9-8-13-20-13-32v-892c0-12 4-24 13-32 8-8 19-13 31-13 12 0 24 5 32 13 8 8 13 20 13 32v178h1161v-178c0-12 4-24 13-32 8-8 19-13 31-13 12 0 24 5 32 13 8 8 13 20 13 32v535c0 60-24 116-65 158-42 42-99 66-158 66z m-1027-90h402v-402h-402v402z m491-402v402h536c35 0 69-14 94-39 26-25 40-59 40-95v-268h-670z" horiz-adv-x="1429" />

<glyph glyph-name="light-bathroom" unicode="&#xe81d;" d="M1066 468h-110c0 9-4 19-11 26-7 7-16 10-26 10h-294c-10 0-19-3-26-10-7-7-11-17-11-26h-294v202c0 15 6 29 16 39 11 10 25 16 39 16 13 0 26-4 36-12 10-8 17-19 20-32 2-9 8-18 16-23 8-5 18-7 27-5 10 2 18 7 24 15 5 8 7 18 5 28-6 29-22 55-45 74-24 19-53 29-83 29-34 0-67-14-91-38-24-24-37-57-37-91v-202h-111c-19 0-38-8-52-22-13-14-21-32-21-52v-147c0-68 27-134 75-182 49-48 114-75 182-75v-74c0-10 4-19 11-26 7-7 16-11 26-11 10 0 19 4 26 11 7 7 11 16 11 26v74h441v-74c0-10 4-19 11-26 7-7 16-11 26-11 9 0 19 4 26 11 7 7 10 16 10 26v74c69 0 134 27 182 75 49 48 76 114 76 182v147c0 20-8 38-22 52-14 14-32 22-52 22z m-184-37v-147h-220v147h220z m184-184c0-24-5-48-14-70-9-23-23-43-40-60-17-17-37-30-59-40-23-9-46-14-71-14h-588c-49 0-95 20-130 54-34 35-54 81-54 130v147h478v-147c0-10 4-19 11-26 7-7 16-11 26-11h294c10 0 19 4 26 11 7 7 11 16 11 26v147h110v-147z" horiz-adv-x="1176" />

<glyph glyph-name="light-share" unicode="&#xe81e;" d="M1122 387l-402 402c-5 6-12 10-20 11-8 2-16 1-23-2-8-3-14-8-18-15-5-7-7-14-7-22v-203c-130-11-274-75-393-175-142-121-231-277-250-439-1-13 1-25 8-37 6-11 15-19 27-25 11-5 24-7 37-4 12 2 24 9 32 18 55 59 252 245 539 261v-200c0-8 2-16 7-22 4-7 10-12 18-15 7-3 15-4 23-2 8 1 15 5 20 11l402 402c8 7 12 17 12 28 0 11-4 21-12 28z m-390-333v144c0 11-4 21-12 29-7 7-17 11-28 11-141 0-278-36-408-109-66-37-128-82-184-133 29 120 103 233 211 326 117 98 259 158 381 158 11 0 21 4 28 11 8 8 12 18 12 29v144l305-305-305-305z" horiz-adv-x="1143" />

<glyph glyph-name="globe" unicode="&#xe81f;" d="M0 366q0 201 142 342t342 142 343-142 142-342-142-343-343-142-342 142-142 343z m63-16q7-166 125-283 52 37 109 60-43 106-47 223l-187 0z m0 31l187 0q4 104 37 196-62 25-117 68-102-113-107-264z m128 287q51-39 108-62 43 101 117 176-131-22-225-114z m20-623q88-76 205-95-64 64-105 148-53-19-100-53z m70 305q4-111 45-213 69 22 143 26l0 187-188 0z m0 31l188 0 0 157q-78 3-153 29-31-88-35-186z m47 215q69-23 141-27l0 218-2 0q-90-76-139-191z m12-486q49-100 127-166l2 0 0 187q-69-4-129-21z m160-166l2 0q78 66 127 166-61 17-129 21l0-187z m0 219q74-4 143-26 41 102 45 213l-188 0 0-187z m0 218l188 0q-4 98-36 186-74-26-152-29l0-157z m0 188q72 4 141 27-49 115-139 191l-2 0 0-218z m53-619q117 19 205 95-47 34-100 53-41-84-105-148z m0 832q74-75 117-176 57 23 107 62-93 92-224 114z m119-655q57-23 109-60 117 117 125 283l-187 0q-4-117-47-223z m10 450q33-92 37-196l187 0q-6 151-107 264-55-43-117-68z" horiz-adv-x="969" />

<glyph glyph-name="light-show-date" unicode="&#xe820;" d="M838 762h-110v37c0 9-4 19-11 26-7 6-16 10-26 10-10 0-19-4-26-10-7-7-11-17-11-26v-37h-367v37c0 9-4 19-11 26-7 6-16 10-26 10-10 0-19-4-26-10-7-7-11-17-11-26v-37h-110c-20 0-38-8-52-22-14-14-22-32-22-52v-735c0-20 8-38 22-52 14-14 32-22 52-22h735c20 0 38 8 52 22 14 14 22 32 22 52v735c0 20-8 38-22 52-14 14-32 22-52 22z m-625-74v-36c0-10 4-20 11-26 7-7 16-11 26-11 10 0 19 4 26 11 7 6 11 16 11 26v36h367v-36c0-10 4-20 11-26 7-7 16-11 26-11 10 0 19 4 26 11 7 6 11 16 11 26v36h110v-147h-735v147h110z m625-735h-735v515h735v-515z m-176 394c4-4 6-8 8-12 2-5 3-10 3-14 0-5-1-10-3-14-2-5-4-9-8-12l-220-221c-4-3-8-6-12-8-5-2-10-3-15-3-4 0-9 1-14 3-4 2-8 5-12 8l-110 110c-7 7-11 17-11 26 0 10 4 19 11 26 7 7 16 11 26 11 10 0 19-4 26-11l84-84 195 195c3 3 8 6 12 8 4 1 9 2 14 2 5 0 10-1 14-2 5-2 9-5 12-8z" horiz-adv-x="941" />

<glyph glyph-name="light-public-sale" unicode="&#xe821;" d="M1196 481c21 4 39 15 52 31 13 16 20 36 20 57v138c0 24-9 47-26 63-17 17-40 26-63 26h-1072c-23 0-46-9-63-26-17-16-26-39-26-63v-138c0-21 7-41 20-57 13-16 31-27 51-31 31-6 58-22 77-46 20-24 30-54 30-85 0-31-10-60-30-84-19-24-46-41-77-47-20-4-38-15-51-31-13-16-20-36-20-57v-138c0-24 9-47 26-63 17-17 40-26 63-26h1072c23 0 46 9 63 26 17 16 26 39 26 63v138c0 21-7 41-20 57-13 16-31 27-52 31-30 6-57 23-76 46-20 24-30 54-30 85 0 31 10 61 30 84 19 24 46 41 76 47v0z m-1089-350c51 11 96 38 129 78 32 40 50 90 50 141 0 51-18 101-50 141-33 40-78 67-129 78v138h313v-714h-313v138z m1072 0v-138h-670v714h670v-138c-51-10-96-38-129-78-32-40-50-89-50-141 0-51 18-101 50-141 33-40 78-67 129-78v0z" horiz-adv-x="1286" />

<glyph glyph-name="light-ticket-price" unicode="&#xe822;" d="M945 356l-431 442c-6 7-14 12-23 15-8 4-17 6-26 6h-402c-10 0-18-4-25-11-7-6-10-15-10-25v-412c0-9 2-19 5-27 4-9 9-17 15-23l431-442c7-7 14-12 23-15 8-4 17-6 26-6 9 0 18 2 27 6 8 3 16 8 22 15l368 377c6 6 12 14 15 23 4 8 5 18 5 27 0 9-1 19-5 27-3 9-9 17-15 23z m-417-427l-431 442v377h368l431-442-368-377z m-222 659c0-11-3-21-9-30-6-9-14-16-24-20-9-4-20-5-30-3-10 2-19 7-26 15-8 7-13 17-15 27-2 11-1 21 3 31 4 10 11 18 20 24 8 6 18 9 29 9 13 0 27-6 36-16 10-10 16-23 16-37z" horiz-adv-x="1000" />

<glyph glyph-name="light-event" unicode="&#xe823;" d="M1044 357c0 59-23 115-65 156-41 42-97 65-155 65h-183c-14 1-247 17-469 203-10 9-23 15-37 17-14 2-28 0-41-6-13-6-23-16-31-27-7-12-11-26-11-40v-735c0-14 4-28 11-40 8-12 18-21 31-27 13-6 27-8 41-6 14 2 27 7 37 16 174 146 354 188 431 199v-145c0-13 3-24 9-35 5-11 14-20 24-27l50-33c10-7 21-11 33-12 12-2 23 0 34 4 11 4 21 11 29 20 8 9 13 19 16 31l54 203c53 8 102 34 137 74 36 40 55 92 55 145z m-919-367v735c197-165 398-207 478-217v-301c-80-10-281-52-478-217z m602-37v0l-50 33v151h99l-49-184z m97 257h-147v294h147c39 0 76-15 104-43 27-27 43-65 43-104 0-39-16-76-43-104-28-27-65-43-104-43z" horiz-adv-x="1059" />

<glyph glyph-name="light-clock" unicode="&#xe824;" d="M500 801c-89 0-176-26-251-76-74-49-132-120-166-202-34-83-43-173-26-261 18-88 61-168 124-231 63-63 143-106 231-124 88-17 178-8 261 26 82 34 153 92 202 166 50 75 76 162 76 251 0 120-47 234-132 319-85 85-199 132-319 132z m0-833c-75 0-149 22-212 64-63 42-112 102-141 172-29 70-36 146-22 221 15 74 52 142 105 195 53 54 121 90 196 105 74 14 150 7 220-22 70-29 130-78 172-141 42-63 64-136 64-212 0-101-40-198-112-270-72-72-169-112-270-112z m278 382c0-9-4-18-10-25-7-6-16-10-25-10h-243c-9 0-18 4-25 10-6 7-10 16-10 25v243c0 9 4 18 10 25 7 6 16 10 25 10 9 0 18-4 25-10 6-7 10-16 10-25v-208h208c9 0 18-4 25-10 6-7 10-16 10-25z" horiz-adv-x="1000" />

<glyph glyph-name="light-date" unicode="&#xe825;" d="M842 767h-113v37c0 10-4 20-11 27-7 7-16 11-26 11-10 0-20-4-27-11-7-7-11-17-11-27v-37h-375v37c0 10-4 20-11 27-7 7-16 11-26 11-10 0-20-4-27-11-7-7-11-17-11-27v-37h-112c-20 0-39-8-53-22-14-14-22-33-22-53v-750c0-20 8-39 22-53 14-14 33-22 53-22h750c20 0 39 8 53 22 14 14 22 33 22 53v750c0 20-8 39-22 53-14 14-33 22-53 22z m-638-75v-38c0-10 4-19 11-26 7-7 17-11 27-11 10 0 19 4 26 11 7 7 11 16 11 26v38h375v-38c0-10 4-19 11-26 7-7 17-11 27-11 10 0 19 4 26 11 7 7 11 16 11 26v38h113v-150h-750v150h112z m638-750h-750v525h750v-525z" horiz-adv-x="933" />

<glyph glyph-name="light-adult" unicode="&#xe826;" d="M1016-77c-72 123-182 212-310 254 64 38 113 95 140 164 28 68 32 144 13 215-20 72-62 134-121 179-59 45-131 69-205 69-74 0-145-24-204-69-59-45-101-107-121-179-20-71-15-147 12-215 28-69 77-126 141-164-129-42-239-131-310-254-3-4-4-9-5-14-1-5-1-10 1-15 1-5 3-9 6-13 3-4 7-8 11-10 5-3 9-4 14-5 5-1 10 0 15 1 5 2 9 4 13 7 4 3 7 7 10 11 88 153 244 244 417 244 174 0 330-91 418-244 2-4 6-8 9-11 4-3 9-5 14-7 5-1 10-2 15-1 4 1 9 2 14 5 4 2 8 6 11 10 3 4 5 8 6 13 1 5 2 10 1 15-1 5-3 10-5 14z m-745 544c0 52 15 102 44 146 29 43 70 76 118 96 48 20 101 25 152 15 51-10 97-35 134-72 37-36 62-83 72-134 10-51 5-104-15-152-20-48-54-89-97-118-43-28-94-44-146-44-69 0-136 28-185 77-49 49-77 116-77 186z" horiz-adv-x="1067" />

<glyph glyph-name="light-tickets" unicode="&#xe827;" d="M1294 491c22 4 41 16 55 33 14 17 22 39 22 61v148c0 26-10 50-28 68-18 18-43 28-68 28h-1150c-25 0-50-10-68-28-18-18-28-42-28-68v-148c0-22 8-44 22-61 14-17 33-29 55-33 32-7 61-24 82-50 21-26 33-58 33-91 0-33-12-65-33-91-21-25-50-43-82-50-22-4-41-16-55-33-14-17-22-39-22-61v-148c0-26 10-50 28-68 18-18 43-28 68-28h1150c25 0 50 10 68 28 18 18 28 42 28 68v148c0 22-8 44-22 61-14 17-33 29-55 33-32 7-61 25-82 50-21 26-32 58-32 91 0 33 11 65 32 91 21 25 50 43 82 50v0z m-1169-376c54 11 103 41 138 83 35 43 54 97 54 152 0 55-19 109-54 152-35 42-84 72-138 83v148h335v-766h-335v148z m1150 0v-148h-719v766h719v-148c-54-11-103-41-138-83-35-43-54-97-54-152 0-55 19-109 54-151 35-43 84-73 138-84v0z" horiz-adv-x="1400" />

<glyph glyph-name="light-restaurant" unicode="&#xe828;" d="M235 539v227c0 10 4 20 11 27 7 7 17 11 27 11 10 0 20-4 27-11 7-7 11-17 11-27v-227c0-10-4-19-11-27-7-7-17-11-27-11-10 0-20 4-27 11-7 8-11 17-11 27z m681 227v-870c0-10-4-20-11-27-7-7-17-11-27-11-10 0-19 4-26 11-8 7-11 17-11 27v227h-227c-10 0-20 4-27 11-7 7-11 17-11 27 1 91 13 181 34 269 46 191 134 320 253 371 6 2 12 3 19 3 6-1 12-3 17-6 5-4 10-8 13-14 3-5 4-12 4-18z m-75-66c-153-116-182-399-188-501h188v501z m-379 72c-1 5-3 10-5 14-3 5-6 8-10 11-5 3-9 5-14 7-5 1-10 1-15 0-5-1-10-3-14-5-4-3-8-6-11-10-3-5-5-9-6-14-1-5-1-10 0-15l37-224c0-40-16-78-44-107-28-28-67-44-107-44-40 0-79 16-107 44-28 29-44 67-44 107l37 224c1 5 1 10 0 15-1 5-3 9-6 14-3 4-7 7-11 10-4 2-9 4-14 5-5 1-10 1-15 0-5-2-9-4-13-7-4-3-8-6-11-11-2-4-4-9-5-14l-37-227c-1-2-1-4-1-6 0-53 19-105 54-146 34-41 82-69 135-78v-419c0-10 4-20 11-27 7-7 17-11 27-11 10 0 20 4 27 11 7 7 11 17 11 27v419c53 9 101 37 135 78 35 41 54 93 54 146 0 2 0 4 0 6l-38 227z" horiz-adv-x="947" />

<glyph glyph-name="light-rooms" unicode="&#xe829;" d="M1044-66h-113v832c0 20-8 39-22 54-14 14-34 22-54 22h-605c-20 0-39-8-53-22-15-15-23-34-23-54v-832h-113c-10 0-20-4-27-11-7-7-11-17-11-27 0-10 4-20 11-27 7-7 17-11 27-11h983c10 0 20 4 27 11 7 7 11 17 11 27 0 10-4 20-11 27-7 7-17 11-27 11z m-794 832h605v-832h-605v832z m492-435c0-11-4-22-10-31-6-10-15-17-25-21-11-5-22-6-33-4-11 3-21 8-29 16-8 8-13 18-16 29-2 11-1 22 4 33 4 10 11 19 21 25 9 7 20 10 31 10 15 0 30-6 40-17 11-10 17-25 17-40z" horiz-adv-x="1105" />

<glyph glyph-name="light-arrow-up" unicode="&#xe82a;" d="M463 791l338-338c7-7 11-17 11-27 0-10-4-19-11-26-7-7-17-11-27-11-10 0-19 4-26 11l-274 273 0-735c0-10-4-19-11-26-7-7-17-11-27-11-10 0-19 4-26 11-7 7-11 16-11 26l0 735-274-273c-7-7-16-11-26-11-10 0-20 4-27 11-7 7-11 16-11 26 0 10 4 20 11 27l338 338c3 3 7 6 12 8 5 2 9 3 14 3 5 0 10-1 15-3 4-2 8-5 12-8z" horiz-adv-x="813" />

<glyph glyph-name="light-globe" unicode="&#xe82b;" d="M500 807c-90 0-179-27-254-77-75-50-134-122-168-205-35-84-44-175-26-264 17-89 61-170 125-234 64-64 145-108 234-125 89-18 180-9 264 26 83 34 155 93 205 168 50 75 77 164 77 254 0 121-48 237-134 323-86 86-202 134-323 134z m-116-633h232c-24-80-63-153-116-210-53 57-92 130-116 210z m-16 71c-11 69-11 141 0 211h264c12-70 12-142 0-211h-264z m-255 105c0 36 5 71 15 106h169c-11-70-11-141 0-211h-169c-10 34-15 69-15 105z m503 176h-232c24 80 63 153 116 210 53-57 92-130 116-210z m87-70h169c20-69 20-142 0-211h-169c11 70 11 141 0 211z m141 70h-155c-18 70-48 137-89 198 52-14 101-39 143-73 42-34 77-77 101-125z m-444 198c-41-61-71-128-89-198h-155c24 48 59 91 101 125 42 34 91 59 143 73z m-244-550h155c18-70 48-137 89-198-52 14-101 39-143 73-42 35-77 77-101 125z m444-198c41 61 71 128 89 198h155c-24-48-59-90-101-125-42-34-91-59-143-73z" horiz-adv-x="1000" />

<glyph glyph-name="light-search" unicode="&#xe82c;" d="M947-47l-220 220c64 77 95 175 89 274-7 100-52 193-126 260-73 67-170 103-270 101-99-2-194-43-265-113-70-71-111-166-113-265-2-100 34-197 101-270 67-74 160-119 260-125 99-7 197 25 274 88l220-220c3-3 7-6 11-7 5-2 9-3 14-3 5 0 9 1 13 3 5 1 9 4 12 7 3 3 6 7 7 12 2 4 3 8 3 13 0 5-1 9-3 14-1 4-4 8-7 11z m-834 467c0 63 19 124 54 176 34 52 84 93 142 117 57 24 121 30 182 18 62-13 118-43 162-87 45-44 75-101 87-162 12-61 6-125-18-183-24-58-64-107-116-142-53-34-114-53-176-53-84 0-165 33-224 93-59 59-93 139-93 223z" horiz-adv-x="1000" />

<glyph glyph-name="light-arrow-right-1" unicode="&#xe82d;" d="M1178 316l-432-433c-9-9-22-14-34-14-13 0-25 5-34 14-9 9-15 21-15 34 0 13 6 25 15 34l350 351h-941c-13 0-25 5-34 14-9 9-14 21-14 34 0 13 5 25 14 34 9 9 21 14 34 14h941l-350 351c-9 9-15 21-15 34 0 12 6 25 15 34 9 9 21 14 34 14 12 0 25-5 34-14l432-433c5-4 8-10 11-16 2-5 3-12 3-18 0-6-1-13-3-18-3-6-6-11-11-16z" horiz-adv-x="1231" />

<glyph glyph-name="light-book" unicode="&#xe82e;" d="M1063 833h-320c-31 0-61-8-89-21-28-14-52-34-71-59-18 25-42 45-70 59-28 13-58 21-89 21h-320c-21 0-41-9-56-24-15-15-24-35-24-56v-639c0-21 9-42 24-57 15-15 35-23 56-23h320c31 0 62-13 84-35 23-23 35-53 35-85 0-10 5-21 12-28 8-8 18-12 28-12 11 0 21 4 29 12 7 7 11 18 11 28 0 32 13 62 35 85 23 22 53 35 85 35h320c21 0 41 8 56 23 15 15 23 36 23 57v639c0 21-8 41-23 56-15 15-35 24-56 24z m-639-719h-320v639h320c31 0 62-13 84-35 23-23 35-53 35-85v-559c-34 26-76 40-119 40z m639 0h-320c-43 0-85-14-120-40v559c0 32 13 62 35 85 23 22 53 35 85 35h320v-639z m-320 519h200c10 0 21-4 28-12 7-7 12-17 12-28 0-10-5-21-12-28-7-8-18-12-28-12h-200c-10 0-21 4-28 12-8 7-12 18-12 28 0 11 4 21 12 28 7 8 18 12 28 12z m240-200c0-10-5-20-12-28-7-7-18-12-28-12h-200c-10 0-21 5-28 12-8 8-12 18-12 28 0 11 4 21 12 29 7 7 18 11 28 11h200c10 0 21-4 28-11 7-8 12-18 12-29z m0-159c0-11-5-21-12-29-7-7-18-11-28-11h-200c-10 0-21 4-28 11-8 8-12 18-12 29 0 10 4 20 12 28 7 7 18 12 28 12h200c10 0 21-5 28-12 7-8 12-18 12-28z" horiz-adv-x="1167" />

<glyph glyph-name="light-tel" unicode="&#xe82f;" d="M946 206l-222 100-1 0c-12 5-24 7-37 6-12-1-24-6-35-12-1-1-2-2-3-3l-115-98c-73 35-149 110-184 182l98 117c1 1 2 2 3 3 7 11 11 23 12 35 1 13-1 25-6 37v0l-100 223c-6 15-18 28-32 36-14 8-30 11-47 9-64-8-122-40-165-88-43-49-66-111-66-176 0-375 306-681 681-681 65 0 127 23 176 66 48 43 80 101 88 165 2 17-1 33-9 47-8 14-21 26-36 32z m-219-234c-160 0-314 64-428 177-113 114-177 268-177 428 0 46 16 91 47 126 30 34 72 57 118 63 0 0 0 0 0 0l99-223-98-117c-1-1-2-2-2-3-8-11-12-24-13-37 0-13 2-26 8-38 43-87 131-175 219-218 12-5 25-8 38-7 13 1 26 6 37 13 1 1 2 2 3 2l115 99 223-100c0 0 0 0 0 0-6-46-28-88-63-118-35-31-80-47-126-47z" horiz-adv-x="1000" />

<glyph glyph-name="light-dress" unicode="&#xe830;" d="M743 747h-95l-63 63c-7 7-16 11-26 11h-294c-5 0-10-1-14-3-5-2-9-5-12-8l-63-63h-95c-20 0-38-8-52-21-14-14-22-33-22-52v-699c0-20 8-38 22-52 14-14 32-22 52-22h662c19 0 38 8 52 22 13 14 21 32 21 52v699c0 19-8 38-21 52-14 13-33 21-52 21z m-178-21l31-31v-242l-136 117 105 156z m-337-31l31 31 104-156-135-117v242z m147-720h-294v699h73v-221c0-14 4-28 12-40 7-11 18-21 31-27 10-4 20-7 31-7 17 0 34 7 47 18 0 0 0 0 0 0l100 86v-508z m-41 772h156l-78-117-78 117z m409-772h-294v508l99-86c0 0 0 0 1 0 13-12 29-18 47-18 10 0 21 3 31 8 13 5 23 15 31 27 7 11 11 25 11 39v221h74v-699z" horiz-adv-x="824" />

<glyph glyph-name="light-book-1" unicode="&#xe831;" d="M1063 833h-320c-31 0-61-8-89-21-28-14-52-34-71-59-18 25-42 45-70 59-28 13-58 21-89 21h-320c-21 0-41-9-56-24-15-15-24-35-24-56v-639c0-21 9-42 24-57 15-15 35-23 56-23h320c31 0 62-13 84-35 23-23 35-53 35-85 0-10 5-21 12-28 8-8 18-12 28-12 11 0 21 4 29 12 7 7 11 18 11 28 0 32 13 62 35 85 23 22 53 35 85 35h320c21 0 41 8 56 23 15 15 23 36 23 57v639c0 21-8 41-23 56-15 15-35 24-56 24z m-639-719h-320v639h320c31 0 62-13 84-35 23-23 35-53 35-85v-559c-34 26-76 40-119 40z m639 0h-320c-43 0-85-14-120-40v559c0 32 13 62 35 85 23 22 53 35 85 35h320v-639z m-320 519h200c10 0 21-4 28-12 7-7 12-17 12-28 0-10-5-21-12-28-7-8-18-12-28-12h-200c-10 0-21 4-28 12-8 7-12 18-12 28 0 11 4 21 12 28 7 8 18 12 28 12z m240-200c0-10-5-20-12-28-7-7-18-12-28-12h-200c-10 0-21 5-28 12-8 8-12 18-12 28 0 11 4 21 12 29 7 7 18 11 28 11h200c10 0 21-4 28-11 7-8 12-18 12-29z m0-159c0-11-5-21-12-29-7-7-18-11-28-11h-200c-10 0-21 4-28 11-8 8-12 18-12 29 0 10 4 20 12 28 7 7 18 12 28 12h200c10 0 21-5 28-12 7-8 12-18 12-28z" horiz-adv-x="1167" />

<glyph glyph-name="light-trip-advisor" unicode="&#xe832;" d="M791 683c32-5 63-13 94-22 54-17 105-40 153-70 3-2 7-3 11-3 56 0 112 0 168 0 5 0 9-1 14-1 0-1 0-2 0-2-3-4-5-8-8-12-19-29-35-59-45-93-1-4-1-7 1-10 50-72 66-151 45-236-18-74-61-132-125-173-47-30-98-44-153-44-23 0-45 3-68 9-55 14-101 41-140 83-5 5-10 11-15 17-21-31-41-61-62-91-20 30-40 60-60 90-1-1-2-1-2-1 0-1 0-1-1-2-47-55-105-89-177-100-40-6-79-4-118 7-55 15-101 44-139 86-37 42-60 90-68 146-10 51 2 101 5 113 9 35 24 67 44 96 2 2 2 6 2 8-9 31-23 60-40 87-5 7-10 13-15 19 0 1 0 2 0 3 1 0 2-1 3-1 57 0 115 0 172 1 3 0 6 1 8 2 40 26 83 46 128 62 33 12 66 21 100 27 33 7 66 11 99 13 81 7 146-2 189-8z m-72-379c0-126 103-229 228-229 126 1 228 101 228 228 0 132-107 230-233 228-124-3-221-103-223-227z m-341 228c-123 1-230-102-228-232 2-121 103-225 230-223 125 1 225 103 226 226 0 127-102 229-228 229z m11 59c69-4 130-28 181-75 52-47 82-105 93-173 11 67 40 125 91 171 50 46 110 71 178 76-81 36-166 51-254 53-99 2-196-13-289-52z m558-143c78 0 141-63 141-141 0-78-62-139-135-141-82-4-148 62-148 141 0 80 66 142 142 141z m92-141c0 51-41 92-92 92-51 0-93-41-93-92 0-50 42-92 92-93 51 0 93 42 93 93z m-664 141c78 0 141-63 141-141-1-79-63-138-135-141-82-4-148 61-148 141 0 80 67 142 142 141z m92-141c-1 51-42 92-94 92-49 0-91-42-91-92 0-51 42-92 93-93 50 0 92 42 92 93z m480 46c26 0 47-21 47-46-1-26-21-47-47-47-26 0-47 21-47 46 0 27 20 47 47 47z m-573 1c27 0 48-21 48-47 0-26-21-47-47-48-27 0-48 21-48 48 0 26 21 47 47 47z" horiz-adv-x="1400" />

<glyph glyph-name="light-suite-size" unicode="&#xe833;" d="M1045 618v-179c0-12-5-23-13-31-9-9-20-13-32-13-12 0-23 4-32 13-8 8-13 19-13 31v134h-134c-11 0-23 5-31 13-8 9-13 20-13 32 0 12 5 23 13 31 8 9 20 14 31 14h179c12 0 23-5 32-14 8-8 13-19 13-31z m-581-491h-134v134c0 12-4 23-13 31-8 9-19 13-31 13-12 0-23-4-32-13-8-8-13-19-13-31v-179c0-12 5-23 13-31 9-9 20-13 32-13h178c12 0 24 4 32 13 8 8 13 19 13 31 0 12-5 23-13 32-8 8-20 13-32 13z m759 625v-804c0-24-9-46-26-63-17-17-39-26-63-26h-982c-24 0-47 9-63 26-17 17-26 39-26 63v804c0 24 9 46 26 63 16 17 39 26 63 26h982c24 0 46-9 63-26 17-17 26-39 26-63z m-89-804v804h-982v-804h982z" horiz-adv-x="1286" />

<glyph glyph-name="facebook" unicode="&#xf052;" d="M0 350h97v-469h193v469h130l17 161h-146v81q0 18 2 28t8 20 19 13 35 4h81v161h-129q-112 0-161-53t-49-157v-97h-97v-161z" horiz-adv-x="437.5" />

<glyph glyph-name="twitter" unicode="&#xf058;" d="M0 68q0-7 7-13 13-8 44-24 119-62 250-62 163 0 296 84 63 40 113 96t78 118 43 123 14 119v17q57 41 89 94 3 6 3 9 0 6-5 11t-11 5q-4 0-12-4-6-2-14-5t-15-5-8-3q13 15 26 39t14 35q0 6-5 11t-11 5q-4 0-8-3-56-29-104-40-59 56-141 56-84 0-143-59t-59-141q0-15 2-24-83 7-159 39t-138 88q-14 14-55 57-6 6-13 6-6 0-13-8-12-19-20-46t-7-54q0-73 45-127l-14 7q-12 5-18 5-8 0-14-5t-5-12q0-52 26-97t71-74l-5 1q-1 0-3 1t-3 1-1 0q-7 0-11-5t-5-11q0 0 1-5 17-51 55-86t90-48q-84-52-187-52-7 0-22 1-20 1-22 1-7 0-11-5t-5-11z" horiz-adv-x="937.5" />

<glyph glyph-name="youtube-play" unicode="&#xf16a;" d="M397 221l270 139-270 141v-280z m103 481q94 0 181-3t128-5l41-2q0 0 9-1t13-2 13-2 16-5 16-7 17-11 16-15q4-3 9-10t16-33 15-56q4-36 7-76t3-64v-98q1-81-10-162-4-30-14-55t-18-35l-8-9q-7-8-16-15t-17-10-16-7-16-5-13-2-13-2-9-1q-140-11-350-11-115 2-201 4t-111 4l-28 3-20 2q-20 3-30 5t-29 12-31 23q-4 3-9 10t-16 33-15 56q-4 36-7 76t-3 64v98q-1 81 10 162 4 31 14 55t18 35l8 9q8 9 16 15t17 11 16 7 16 5 13 2 13 2 9 1q140 10 350 10z" horiz-adv-x="1000" />

<glyph glyph-name="instagram" unicode="&#xf16d;" d="M571 350q0 59-41 101t-101 42-101-42-42-101 42-101 101-42 101 42 41 101z m77 0q0-91-64-156t-155-64-156 64-64 156 64 156 156 64 155-64 64-156z m61 229q0-21-15-36t-37-15-36 15-15 36 15 36 36 15 37-15 15-36z m-280 123q-4 0-43 0t-59 0-54-2-57-5-40-11q-28-11-49-32t-33-49q-6-16-10-40t-6-58-1-53 0-59 0-43 0-43 0-59 1-53 6-58 10-40q12-28 33-49t49-32q16-6 40-11t57-5 54-2 59 0 43 0 42 0 59 0 54 2 58 5 39 11q28 11 50 32t32 49q6 16 10 40t6 58 1 53 0 59 0 43 0 43 0 59-1 53-6 58-10 40q-11 28-32 49t-50 32q-16 6-39 11t-58 5-54 2-59 0-42 0z m428-352q0-128-3-177-5-116-69-180t-179-69q-50-3-177-3t-177 3q-116 6-180 69t-69 180q-3 49-3 177t3 177q5 116 69 180t180 69q49 3 177 3t177-3q116-6 179-69t69-180q3-49 3-177z" horiz-adv-x="857.1" />
</font>
</defs>
</svg>
